<?xml version="1.0" standalone="no"?><!DOCTYPE svg PUBLIC "-//W3C//DTD SVG 1.1//EN" "http://www.w3.org/Graphics/SVG/1.1/DTD/svg11.dtd"><svg t="1627030371505" class="icon" viewBox="0 0 1194 1024" version="1.1" xmlns="http://www.w3.org/2000/svg" p-id="7231" xmlns:xlink="http://www.w3.org/1999/xlink" width="74.625" height="64"><defs><style type="text/css">@font-face { font-family: feedback-iconfont; src: url("//at.alicdn.com/t/font_1031158_1uhr8ri0pk5.eot?#iefix") format("embedded-opentype"), url("//at.alicdn.com/t/font_1031158_1uhr8ri0pk5.woff2") format("woff2"), url("//at.alicdn.com/t/font_1031158_1uhr8ri0pk5.woff") format("woff"), url("//at.alicdn.com/t/font_1031158_1uhr8ri0pk5.ttf") format("truetype"), url("//at.alicdn.com/t/font_1031158_1uhr8ri0pk5.svg#iconfont") format("svg"); }
</style></defs><path d="M605.866667 0C204.8 0 0 153.6 0 460.8c0 307.2 196.266667 460.8 588.8 469.333333 102.4 0 324.266667-51.2 324.266667-51.2l238.933333 145.066667-51.2-281.6s85.333333-187.733333 93.866667-273.066667C1194.666667 162.133333 998.4 0 605.866667 0z m51.2 648.533333c0 34.133333-25.6 68.266667-68.266667 68.266667H324.266667C290.133333 708.266667 256 682.666667 256 648.533333v-34.133333c0-34.133333 25.6-68.266667 68.266667-68.266667h264.533333c34.133333 0 68.266667 25.6 68.266667 68.266667v34.133333z m298.666666-298.666666c0 34.133333-25.6 68.266667-68.266666 68.266666h-597.333334c-34.133333-8.533333-59.733333-34.133333-59.733333-68.266666v-34.133334c0-34.133333 25.6-68.266667 68.266667-68.266666h597.333333c34.133333 0 68.266667 25.6 68.266667 68.266666l-8.533334 34.133334z" p-id="7232"></path></svg>