<?xml version="1.0" standalone="no"?><!DOCTYPE svg PUBLIC "-//W3C//DTD SVG 1.1//EN" "http://www.w3.org/Graphics/SVG/1.1/DTD/svg11.dtd"><svg t="1604283396744" class="icon" viewBox="0 0 1024 1024" version="1.1" xmlns="http://www.w3.org/2000/svg" p-id="3357" width="200" height="200"><path d="M522.646 62.593a267.357 267.357 0 0 1 189.699 65.209 223.49 223.49 0 0 1 69.359 171.915 230.603 230.603 0 0 1-46.832 144.053 1163.094 1163.094 0 0 1-100.185 94.85 240.681 240.681 0 0 0-59.281 68.766 101.963 101.963 0 0 0-24.898 66.987h-97.221a149.388 149.388 0 0 1 26.083-81.808 515.152 515.152 0 0 1 124.49-143.46c14.82-14.227 28.456-29.048 42.09-44.46a154.724 154.724 0 0 0 36.754-97.221 154.724 154.724 0 0 0-41.496-115.006 163.023 163.023 0 0 0-121.526-43.275 158.873 158.873 0 0 0-136.94 59.281 224.675 224.675 0 0 0-40.31 142.275H242.245a286.327 286.327 0 0 1 72.916-207.484 267.357 267.357 0 0 1 207.484-80.622z m-18.377 751.683a72.916 72.916 0 0 1 75.286 72.916 69.952 69.952 0 0 1-22.526 53.353 77.065 77.065 0 0 1-106.706 0 71.137 71.137 0 0 1-20.156-53.353 64.616 64.616 0 0 1 20.749-53.946 71.73 71.73 0 0 1 53.353-18.97z" p-id="3358"></path></svg>