<?xml version="1.0" standalone="no"?><!DOCTYPE svg PUBLIC "-//W3C//DTD SVG 1.1//EN" "http://www.w3.org/Graphics/SVG/1.1/DTD/svg11.dtd"><svg t="1626316430298" class="icon" viewBox="0 0 1024 1024" version="1.1" xmlns="http://www.w3.org/2000/svg" p-id="28088" xmlns:xlink="http://www.w3.org/1999/xlink" width="200" height="200"><defs><style type="text/css"></style></defs><path d="M258.4 222.7c16.6 16.7 25 36.9 25 60.8 0 23.8-8.4 44-25 60.8-16.7 16.7-36.9 25-60.8 25s-44-8.4-60.8-25c-16.6-16.7-24.9-36.9-24.9-60.8 0-23.8 8.4-44 25-60.8 16.6-16.6 36.9-25 60.8-25 23.8 0 44.1 8.3 60.7 25z m0 228.6c16.6 16.7 25 36.9 25 60.8 0 23.8-8.4 44-25 60.8-16.7 16.7-36.9 25-60.8 25s-44-8.4-60.8-25c-16.6-16.7-24.9-37-24.9-60.8 0-23.8 8.4-44 25-60.8 16.6-16.6 36.9-25 60.8-25 23.8 0 44.1 8.3 60.7 25z m0 228.5c16.6 16.7 25 36.9 25 60.8s-8.4 44-25 60.8c-16.7 16.6-36.9 25-60.8 25s-44-8.4-60.8-25c-16.6-16.7-24.9-37-24.9-60.8 0-23.8 8.4-44 25-60.8 16.6-16.6 36.9-25 60.8-25 23.8 0.1 44.1 8.4 60.7 25zM912 240.6v85.7c0 3.8-1.4 7.2-4.2 10s-6.2 4.2-10 4.2h-543c-3.8 0-7.2-1.4-10-4.2-2.8-2.8-4.2-6.2-4.2-10v-85.7c0-3.8 1.4-7.2 4.2-10 2.8-2.8 6.2-4.2 10-4.2h542.9c3.8 0 7.2 1.4 10 4.2 2.9 2.8 4.3 6 4.3 10z m0 228.5v85.7c0 3.8-1.4 7.2-4.2 10s-6.2 4.2-10 4.2h-543c-3.8 0-7.2-1.4-10-4.2-2.8-2.8-4.2-6.2-4.2-10v-85.7c0-3.8 1.4-7.2 4.2-10 2.8-2.8 6.2-4.2 10-4.2h542.9c3.8 0 7.2 1.4 10 4.2 2.9 2.8 4.3 6.2 4.3 10z m0 228.6v85.7c0 3.8-1.4 7.2-4.2 10s-6.2 4.2-10 4.2h-543c-3.8 0-7.2-1.4-10-4.2-2.8-2.8-4.2-6.2-4.2-10v-85.7c0-3.8 1.4-7.2 4.2-10 2.8-2.8 6.2-4.2 10-4.2h542.9c3.8 0 7.2 1.4 10 4.2 2.9 2.8 4.3 6.1 4.3 10z" fill="" p-id="28089"></path></svg>