<?xml version="1.0" standalone="no"?><!DOCTYPE svg PUBLIC "-//W3C//DTD SVG 1.1//EN" "http://www.w3.org/Graphics/SVG/1.1/DTD/svg11.dtd"><svg t="1595660308505" class="icon" viewBox="0 0 1024 1024" version="1.1" xmlns="http://www.w3.org/2000/svg" p-id="967" width="200" height="200" xmlns:xlink="http://www.w3.org/1999/xlink"><path d="M773.3 431.96666667v-112S773.3 58.66666667 512 58.66666667 250.7 319.96666667 250.7 319.96666667v112h-112V954.66666667h746.6V431.96666667h-112z m-224 288.4V842.66666667h-74.7V720.36666667c-22.2-12.9-37.3-36.8-37.3-64.3 0-41.3 33.5-74.7 74.7-74.7s74.7 33.4 74.7 74.7c0 27.5-15.2 51.3-37.4 64.3m149.4-288.4H325.3V320.46666667c0.4-31.3 11.4-187.1 186.7-187.1s186.2 155.9 186.7 186.7v111.9z" p-id="968"></path></svg>