<?xml version="1.0" standalone="no"?><!DOCTYPE svg PUBLIC "-//W3C//DTD SVG 1.1//EN" "http://www.w3.org/Graphics/SVG/1.1/DTD/svg11.dtd"><svg t="1625128159852" class="icon" viewBox="0 0 1092 1024" version="1.1" xmlns="http://www.w3.org/2000/svg" p-id="40711" xmlns:xlink="http://www.w3.org/1999/xlink" width="213.28125" height="200"><path d="M1071.78543 447.915844L822.867795 230.913162V59.734412a59.732913 59.732913 0 0 0-119.465825 0v66.986902L591.699133 29.441457a59.732913 59.732913 0 0 0-60.244911-17.749974l-4.266994 1.365998-2.473997 0.938998-1.962997 0.852999a60.244912 60.244912 0 0 0-17.749974 12.116982L20.56597 447.488844A59.732913 59.732913 0 0 0 98.900855 537.600712l447.914344-388.77843L993.278545 538.027712a59.732913 59.732913 0 0 0 78.506885-90.111868z" p-id="40712"></path><path d="M458.751328 337.580005L162.644762 596.395626v349.353489c0 39.167943 39.082943 78.250885 77.994886 78.250885h624.298085c39.081943 0 77.993886-39.082943 77.993886-78.249885V608.084609l-396.799419-346.708492z m211.199691 373.417453v195.583714H435.796362V710.997458a78.164886 78.164886 0 0 1 78.079885-78.164885h77.994886a78.164886 78.164886 0 0 1 78.079886 78.164885z" p-id="40713"></path></svg>
