<?xml version="1.0" standalone="no"?><!DOCTYPE svg PUBLIC "-//W3C//DTD SVG 1.1//EN" "http://www.w3.org/Graphics/SVG/1.1/DTD/svg11.dtd"><svg t="1626315791407" class="icon" viewBox="0 0 1024 1024" version="1.1" xmlns="http://www.w3.org/2000/svg" p-id="18778" xmlns:xlink="http://www.w3.org/1999/xlink" width="200" height="200"><defs><style type="text/css"></style></defs><path d="M902.75328 867.79392h-366.76608c-71.53664 0-139.56096-6.24128-203.8272-41.9072-96.17408-53.376-164.28544-152.95488-174.62272-263.10656-9.22112-98.26816 8.3456-197.87264 70.61504-276.9664 67.85024-86.17984 169.2672-129.87392 277.56544-130.11968 104.3712-0.23552 199.76704 31.47776 272.27136 109.41952 61.75232 66.38592 89.92256 151.54176 90.08128 241.13152 0.23552 132.07552 0 264.15104 0 396.22656 0 44.63104 69.36064 44.70272 69.36064 0v-392.17664c0-95.57504-25.48736-186.25536-84.15232-262.8352-74.91584-97.792-191.06304-157.58848-314.33728-161.00352-110.62784-3.06176-214.49216 21.5296-301.89568 92.3648-95.05792 77.04064-148.94592 193.98144-150.43584 315.7504-1.35168 110.83776 25.66656 213.14048 98.29376 299.1872 76.75904 90.94144 191.744 142.14656 310.09792 143.39072 135.8848 1.42848 271.85152 0 407.74144 0 44.64128 0.00512 44.71296-69.35552 0.01024-69.35552z" p-id="18779"></path></svg>