<?xml version="1.0" standalone="no"?><!DOCTYPE svg PUBLIC "-//W3C//DTD SVG 1.1//EN" "http://www.w3.org/Graphics/SVG/1.1/DTD/svg11.dtd"><svg t="1626313769141" class="icon" viewBox="0 0 1024 1024" version="1.1" xmlns="http://www.w3.org/2000/svg" p-id="2658" xmlns:xlink="http://www.w3.org/1999/xlink" width="200" height="200"><defs><style type="text/css"></style></defs><path d="M363.8272 7.9872a25.6 25.6 0 0 1 31.0272 9.3696l36.0448 53.4528a97.9968 97.9968 0 0 0 162.4576 0l35.9424-53.248a25.6 25.6 0 0 1 31.0272-9.3184l102.912 42.6496a25.6 25.6 0 0 1 15.36 28.5696l-12.288 63.232a97.9968 97.9968 0 0 0 114.8416 114.7904l63.3344-12.3904a25.6 25.6 0 0 1 28.5696 15.3088l42.9056 103.168a25.6 25.6 0 0 1-9.3696 31.0784l-53.3504 35.84a98.2528 98.2528 0 0 0-0.2048 162.9184l53.1456 35.84a25.6 25.6 0 0 1 9.3184 31.0784l-42.5984 102.912a25.6 25.6 0 0 1-28.5184 15.3088l-63.1296-12.288a98.1504 98.1504 0 0 0-88.2176 27.0336 98.4576 98.4576 0 0 0-26.9312 88.3712l12.288 63.232a25.6 25.6 0 0 1-15.36 28.5184l-102.8608 42.5984a25.6 25.6 0 0 1-31.0272-9.3696l-35.9936-53.5552a97.792 97.792 0 0 0-162.4064-0.1024l-36.0448 53.4016a25.6 25.6 0 0 1-31.0272 9.3696l-102.912-42.6496a25.6 25.6 0 0 1-15.36-28.5696l12.288-63.232A97.9968 97.9968 0 0 0 142.848 766.464l-63.488 12.3904a25.6 25.6 0 0 1-28.5696-15.36l-42.7008-103.1168a25.6 25.6 0 0 1 9.3696-31.0272l53.3504-35.84a98.2528 98.2528 0 0 0 0.2048-162.9696L17.6128 394.5984a25.6 25.6 0 0 1-9.3184-31.0272l42.5984-102.912a25.6 25.6 0 0 1 28.5696-15.3088l63.0784 12.288a98.3552 98.3552 0 0 0 115.2-115.3024l-12.288-63.0784A25.6 25.6 0 0 1 260.6592 50.688zM512 307.2a204.8 204.8 0 1 0 0 409.6 204.8 204.8 0 0 0 0-409.6z m0 102.4a102.4 102.4 0 1 1 0 204.8 102.4 102.4 0 0 1 0-204.8z" p-id="2659"></path></svg>