<?xml version="1.0" standalone="no"?><!DOCTYPE svg PUBLIC "-//W3C//DTD SVG 1.1//EN" "http://www.w3.org/Graphics/SVG/1.1/DTD/svg11.dtd"><svg t="1595660324562" class="icon" viewBox="0 0 1024 1024" version="1.1" xmlns="http://www.w3.org/2000/svg" p-id="1194" width="200" height="200" xmlns:xlink="http://www.w3.org/1999/xlink"><path d="M885.7979264 187.23691016h-36.4088896s-84.9540736-2.42725973-169.90814827-36.40888853c-87.38133333-36.40888853-145.6355552-77.67229653-145.6355552-77.67229654l-21.84533333-16.99081493-21.84533333 14.5635552s-58.25422187 41.26340693-145.6355552 77.67229653c-84.9540736 36.40888853-169.90814827 36.40888853-169.90814827 36.40888854H138.2020736v383.5069632c0 191.7534816 242.7259264 395.64325973 373.7979264 395.64325973s373.7979264-203.88977813 373.7979264-395.64325973V187.23691016z m-106.799408 169.90814827L509.57274027 628.99809523c-7.28177813 7.28177813-16.99081493 9.7090368-26.69985174 9.7090368-7.28177813 0-16.99081493-2.42725973-21.84533333-7.28177707l-182.04444373-145.63555627c-14.5635552-12.13629653-19.4180736-36.40888853-4.8545184-50.97244373 12.13629653-14.5635552 36.40888853-19.4180736 50.97244373-4.85451947l157.77185173 126.2174816 247.5804448-247.58044373c14.5635552-14.5635552 36.40888853-14.5635552 50.9724448 0s12.13629653 33.98162987-2.42725973 48.54518507z" p-id="1195"></path></svg>