<?xml version="1.0" standalone="no"?><!DOCTYPE svg PUBLIC "-//W3C//DTD SVG 1.1//EN" "http://www.w3.org/Graphics/SVG/1.1/DTD/svg11.dtd"><svg t="1625127042655" class="icon" viewBox="0 0 1024 1024" version="1.1" xmlns="http://www.w3.org/2000/svg" p-id="37554" xmlns:xlink="http://www.w3.org/1999/xlink" width="200" height="200"><defs><style type="text/css"></style></defs><path d="M518.464 32c8.96 0 17.6 3.712 23.744 10.24 81.536 78.08 235.776 122.24 364.8 122.24 16.96 0 33.92 16.96 33.92 33.92l-6.784 359.936c0 115.456-61.12 224.064-162.944 288.64L532.032 979.2a35.84 35.84 0 0 1-16.96 6.848c-3.392 0-10.176-3.392-16.96-6.848l-239.104-132.352C157.12 782.4 96 673.792 96 558.272v-356.48c0-20.352 13.568-33.92 33.984-33.92 129.024 0 283.2-47.552 364.736-125.696A32.768 32.768 0 0 1 518.4 32zM512 294.4a38.4 38.4 0 0 0-38.4 38.4V448H358.4a38.4 38.4 0 0 0-37.888 32.192L320 486.4a38.4 38.4 0 0 0 38.4 38.4h115.136L473.6 640a38.4 38.4 0 0 0 32.192 37.888L512 678.4a38.4 38.4 0 0 0 38.4-38.4V524.8h115.2a38.4 38.4 0 0 0 37.888-32.192L704 486.4a38.4 38.4 0 0 0-38.4-38.4H550.4V332.8a38.4 38.4 0 0 0-32.192-37.888z" p-id="37555"></path></svg>
