<?xml version="1.0" standalone="no"?><!DOCTYPE svg PUBLIC "-//W3C//DTD SVG 1.1//EN" "http://www.w3.org/Graphics/SVG/1.1/DTD/svg11.dtd"><svg t="1592644727495" class="icon" viewBox="0 0 1024 1024" version="1.1" xmlns="http://www.w3.org/2000/svg" p-id="774" width="200" height="200" xmlns:xlink="http://www.w3.org/1999/xlink"><defs><style type="text/css"></style></defs><path d="M953.49333333 808.42666667v-3.62666667c0-37.76-14.50666667-72.96-40.85333333-99.41333333l-172.8-172.8c22.29333333-61.22666667 27.41333333-126.61333333 14.50666667-189.33333334-13.22666667-64.85333333-44.90666667-123.84-91.62666667-170.45333333-31.46666667-31.46666667-68.69333333-56-110.50666667-72.85333333-40.96-16.53333333-84.37333333-24.96-129.17333333-24.96-6.18666667 0-12.26666667 0.21333333-18.45333333 0.53333333-1.28 0.10666667-2.56 0.10666667-3.84 0.21333333h-0.64c-32.96 2.02666667-66.02666667 8.64-98.24 20.05333334l-33.6 11.2 0.53333333 0.53333333c-2.45333333 1.38666667-4.26666667 3.84-4.90666667 6.61333333-0.85333333 3.52 0.21333333 7.25333333 2.77333334 9.70666667l205.33333333 205.33333333-147.30666667 147.52-205.44-205.33333333c-2.02666667-2.02666667-4.58666667-3.09333333-7.36-3.09333333-0.74666667 0-1.6 0.10666667-2.34666666 0.32-2.88 0.64-5.33333333 2.56-6.72 5.12l-0.53333334-0.53333334-11.2 33.6C77.76 343.46666667 70.93333333 381.76 70.4 419.94666667c-0.53333333 26.56 2.02666667 53.12 7.57333333 79.46666666 13.65333333 64.53333333 44.90666667 122.56 90.24 167.89333334 31.36 32.10666667 68.58666667 57.06666667 110.4 74.13333333 40.64 16.53333333 83.94666667 25.06666667 128.64 25.06666667 47.78666667 0 94.29333333-9.6 138.56-28.37333334l168 168c25.28 27.52 60.58666667 42.66666667 99.52 42.66666667 2.02666667 0 4.05333333 0 5.97333334-0.10666667h1.28c35.84 0 69.65333333-13.44 94.18666666-42.66666666 26.77333333-26.66666667 39.68-62.29333333 38.72-97.6zM407.78666667 706.13333333c-73.92 0-142.93333333-28.26666667-194.24-79.57333333-61.44-61.44-89.49333333-152.42666667-75.30666667-241.17333333l148.48 148.48c10.34666667 10.34666667 24 16.21333333 37.97333333 16.21333333 14.08 0 27.62666667-5.76 37.97333334-16.21333333l162.13333333-162.34666667c10.34666667-10.34666667 16.21333333-24 16.21333333-37.97333333 0-14.08-5.76-27.62666667-16.21333333-37.97333334L376.42666667 147.09333333c15.14666667-2.45333333 30.50666667-3.62666667 45.86666666-3.62666666 74.88 0 144.32 28.05333333 195.2 79.04 79.68 79.68 101.22666667 200.64 54.93333334 308.37333333l-6.50666667 12.8a10.34666667 10.34666667 0 0 0 1.92 11.94666667l199.46666667 199.46666666c13.76 13.76 21.65333333 33.38666667 21.65333333 53.97333334s-7.89333333 40.32-21.65333333 53.97333333c-13.76 13.76-33.38666667 21.65333333-53.97333334 21.65333333s-40.32-7.89333333-53.97333333-21.65333333L564.26666667 668.16c-2.02666667-2.02666667-4.69333333-3.09333333-7.36-3.09333333-1.81333333 0-3.52 0.42666667-5.12 1.38666666l-15.14666667 8.64c-39.78666667 20.26666667-84.37333333 31.04-128.85333333 31.04z" p-id="775"></path></svg>