<?xml version="1.0" standalone="no"?><!DOCTYPE svg PUBLIC "-//W3C//DTD SVG 1.1//EN" "http://www.w3.org/Graphics/SVG/1.1/DTD/svg11.dtd"><svg t="1626314355506" class="icon" viewBox="0 0 1024 1024" version="1.1" xmlns="http://www.w3.org/2000/svg" p-id="4340" xmlns:xlink="http://www.w3.org/1999/xlink" width="200" height="200"><defs><style type="text/css"></style></defs><path d="M347.118644 216.949153c52.067797-43.389831 52.067797-190.915254-60.745763-164.881356-138.847458 26.033898-60.745763 260.338983 60.745763 164.881356z m373.152542 34.711864c95.457627 86.779661 164.881356-112.813559 52.067797-138.847458-95.457627-17.355932-95.457627 104.135593-52.067797 138.847458z" p-id="4341"></path><path d="M364.474576 841.762712c-52.067797-17.355932-17.355932 95.457627-26.033898 130.169491h43.38983c-17.355932-26.033898 17.355932-121.491525-17.355932-130.169491z m312.40678 0c-34.711864 8.677966 0 95.457627-8.677966 130.169491h43.38983c-17.355932-34.711864 17.355932-147.525424-34.711864-130.169491z m295.050847-425.220339c-34.711864-34.711864-69.423729-69.423729-112.813559-95.457627-17.355932-8.677966-34.711864-17.355932-60.745763-17.355932-60.745763-8.677966-130.169492 8.677966-173.559322 52.067796-17.355932 34.711864-60.745763 164.881356-95.457627 164.881356-8.677966 8.677966-104.135593-190.915254-147.525424-225.627119-52.067797-43.389831-156.20339-34.711864-199.59322 0C86.779661 355.79661-17.355932 590.101695 8.677966 616.135593c34.711864 34.711864 86.779661-69.423729 104.135593-60.745762s60.745763 425.220339 147.525424 416.542372h52.067797c-43.389831-43.389831-43.389831-251.661017-52.067797-251.661017-8.677966-8.677966-43.389831 60.745763-69.423729 34.711865-8.677966-17.355932 52.067797-164.881356 112.81356-199.59322 26.033898-26.033898 95.457627-26.033898 130.169491 0l8.677966 8.677966c26.033898 17.355932 52.067797 95.457627 86.779661 95.457627 8.677966 0 17.355932 0 26.033899-8.677966 17.355932-43.389831 43.389831-86.779661 60.745762-95.457627 26.033898-26.033898 95.457627-26.033898 130.169492 0 52.067797 34.711864 121.491525 182.237288 104.135593 199.59322-26.033898 26.033898-52.067797-43.389831-69.423729-34.711865-8.677966 0-8.677966 208.271186-43.38983 251.661017h52.067796c104.135593 8.677966 121.491525-390.508475 121.491526-451.254237 43.389831 8.677966 78.101695 173.559322 104.135593 69.423729 17.355932-52.067797-17.355932-130.169492-43.389831-173.559322zM407.864407 503.322034c-69.423729 60.745763-121.491525-86.779661-34.711865-104.135593 69.423729-8.677966 69.423729 78.101695 34.711865 104.135593z m234.305085 0c-34.711864-26.033898-34.711864-112.813559 34.711864-104.135593 86.779661 17.355932 34.711864 164.881356-34.711864 104.135593z" p-id="4342"></path></svg>